# Tiled2Unity generated file. Do not modify by hand.
# Wavefront file for 'Strategy-Map1_mesh_0011.obj'

# Vertices (Count = 64)
v -21 -17 0
v -22 -17 0
v -22 -16 0
v -21 -16 0
v -20 -17 0
v -21 -17 0
v -21 -16 0
v -20 -16 0
v -21 -16 0
v -22 -16 0
v -22 -15 0
v -21 -15 0
v -20 -16 0
v -21 -16 0
v -21 -15 0
v -20 -15 0
v -10 -16 0
v -11 -16 0
v -11 -15 0
v -10 -15 0
v -21 -15 0
v -22 -15 0
v -22 -14 0
v -21 -14 0
v -20 -15 0
v -21 -15 0
v -21 -14 0
v -20 -14 0
v -19 -15 0
v -20 -15 0
v -20 -14 0
v -19 -14 0
v -18 -15 0
v -19 -15 0
v -19 -14 0
v -18 -14 0
v -17 -15 0
v -18 -15 0
v -18 -14 0
v -17 -14 0
v -12 -15 0
v -13 -15 0
v -13 -14 0
v -12 -14 0
v -11 -15 0
v -12 -15 0
v -12 -14 0
v -11 -14 0
v -11 -14 0
v -12 -14 0
v -12 -13 0
v -11 -13 0
v -10 -14 0
v -11 -14 0
v -11 -13 0
v -10 -13 0
v -11 -13 0
v -12 -13 0
v -12 -12 0
v -11 -12 0
v -13 -11 0
v -14 -11 0
v -14 -10 0
v -13 -10 0

# Texture cooridinates (Count = 48)
vt 0.1428571 0.7954546
vt 0.2857143 0.7954546
vt 0.2857143 0.8181818
vt 0.1428571 0.8181818
vt 0 0.7954546
vt 0 0.8181818
vt 0.2857143 0.8409091
vt 0.1428571 0.8409091
vt 0 0.8409091
vt 0 0.9545454
vt 0.1428571 0.9545454
vt 0.1428571 0.9772727
vt 0 0.9772727
vt 0.5714286 0.2727273
vt 0.7142857 0.2727273
vt 0.7142857 0.2954546
vt 0.5714286 0.2954546
vt 0.4285714 0.2272727
vt 0.5714286 0.2272727
vt 0.5714286 0.25
vt 0.4285714 0.25
vt 0.2857143 0.8863636
vt 0.4285714 0.8863636
vt 0.4285714 0.9090909
vt 0.2857143 0.9090909
vt 0.2857143 0.2727273
vt 0.4285714 0.2727273
vt 0.4285714 0.2954546
vt 0.2857143 0.2954546
vt 0.4285714 0.9318182
vt 0.5714286 0.9318182
vt 0.5714286 0.9545454
vt 0.4285714 0.9545454
vt 0 0.7272727
vt 0.1428571 0.7272727
vt 0.1428571 0.75
vt 0 0.75
vt 0.1428571 0.9318182
vt 0.2857143 0.9318182
vt 0.2857143 0.9545454
vt 0.4285714 0.7727273
vt 0.5714286 0.7727273
vt 0.5714286 0.7954546
vt 0.4285714 0.7954546
vt 0 0.8636364
vt 0.1428571 0.8636364
vt 0.1428571 0.8863636
vt 0 0.8863636

# Normal
vn 0 0 -1

# Mesh description
g Strategy-Map1_mesh_0011

# Faces
f 1/1/1 2/2/1 3/3/1 4/4/1
f 5/5/1 6/1/1 7/4/1 8/6/1
f 9/4/1 10/3/1 11/7/1 12/8/1
f 13/6/1 14/4/1 15/8/1 16/9/1
f 17/10/1 18/11/1 19/12/1 20/13/1
f 21/14/1 22/15/1 23/16/1 24/17/1
f 25/18/1 26/19/1 27/20/1 28/21/1
f 29/18/1 30/19/1 31/20/1 32/21/1
f 33/22/1 34/23/1 35/24/1 36/25/1
f 37/26/1 38/27/1 39/28/1 40/29/1
f 41/30/1 42/31/1 43/32/1 44/33/1
f 45/34/1 46/35/1 47/36/1 48/37/1
f 49/34/1 50/35/1 51/36/1 52/37/1
f 53/38/1 54/39/1 55/40/1 56/11/1
f 57/41/1 58/42/1 59/43/1 60/44/1
f 61/45/1 62/46/1 63/47/1 64/48/1

